<svg width="7" height="13" viewBox="0 0 7 13" fill="none" xmlns="http://www.w3.org/2000/svg">
<path d="M6.25341 6.34908C6.25403 6.00156 6.18615 5.65732 6.05365 5.33605C5.92115 5.01478 5.72663 4.72278 5.48121 4.47674L1.16002 0.155548C1.06042 0.0559522 0.925341 2.93707e-08 0.784491 2.3214e-08C0.643642 1.70572e-08 0.508561 0.0559522 0.408966 0.155548C0.30937 0.255143 0.253418 0.390224 0.253418 0.531073C0.253418 0.671923 0.30937 0.807004 0.408966 0.906599L4.73016 5.22779C5.0273 5.5253 5.1942 5.92859 5.1942 6.34908C5.1942 6.76956 5.0273 7.17285 4.73016 7.47036L0.408965 11.7916C0.30937 11.8911 0.253417 12.0262 0.253417 12.1671C0.253417 12.3079 0.30937 12.443 0.408965 12.5426C0.508561 12.6422 0.643641 12.6982 0.784491 12.6982C0.92534 12.6982 1.06042 12.6422 1.16002 12.5426L5.48121 8.22141C5.72663 7.97537 5.92115 7.68337 6.05365 7.3621C6.18615 7.04083 6.25403 6.6966 6.25341 6.34908Z" fill="#E0E0E0"/>
</svg>
