<svg width="25" height="24" viewBox="0 0 25 24" fill="none" xmlns="http://www.w3.org/2000/svg">
<path d="M13.5539 4.23823C12.2882 3.33421 10.5692 4.44569 10.8743 5.97083L11.3002 8.10068C11.3716 8.4572 11.26 8.82577 11.0029 9.08286C10.6363 9.44939 10.062 9.50625 9.63075 9.21872L8.65569 8.56868C7.81742 8.00983 6.67732 8.36394 6.30315 9.29936L5.52976 11.2328C4.83236 12.9763 4.65712 14.885 5.02539 16.7264C5.40121 18.6055 6.75511 20.1392 8.5731 20.7452L8.97596 20.8795C11.2634 21.6419 13.7364 21.6419 16.0239 20.8795L16.2954 20.7889C18.1946 20.1559 19.609 18.5537 20.0016 16.5906L20.0777 16.2099C20.3695 14.7511 20.3695 13.249 20.0777 11.7902C19.6442 9.62247 18.4019 7.70108 16.603 6.41619L13.5539 4.23823Z" fill="#256CD0"/>
</svg>
