<svg width="140" height="140" viewBox="0 0 140 140" fill="none" xmlns="http://www.w3.org/2000/svg">
<path d="M107.917 11.6667H105V8.75C105 6.42936 104.078 4.20376 102.437 2.56282C100.796 0.921872 98.5706 0 96.25 0C93.9294 0 91.7038 0.921872 90.0628 2.56282C88.4219 4.20376 87.5 6.42936 87.5 8.75V11.6667H52.5V8.75C52.5 6.42936 51.5781 4.20376 49.9372 2.56282C48.2962 0.921872 46.0706 0 43.75 0C41.4294 0 39.2038 0.921872 37.5628 2.56282C35.9219 4.20376 35 6.42936 35 8.75V11.6667H32.0833C23.5743 11.6667 15.4138 15.0469 9.39699 21.0637C3.3802 27.0805 0 35.241 0 43.75L0 107.917C0 116.426 3.3802 124.586 9.39699 130.603C15.4138 136.62 23.5743 140 32.0833 140H107.917C116.426 140 124.586 136.62 130.603 130.603C136.62 124.586 140 116.426 140 107.917V43.75C140 35.241 136.62 27.0805 130.603 21.0637C124.586 15.0469 116.426 11.6667 107.917 11.6667ZM107.917 122.5H32.0833C28.2156 122.5 24.5063 120.964 21.7714 118.229C19.0365 115.494 17.5 111.784 17.5 107.917V58.3333H122.5V107.917C122.5 111.784 120.964 115.494 118.229 118.229C115.494 120.964 111.784 122.5 107.917 122.5Z" fill="black"/>
</svg>
