<svg width="20" height="20" viewBox="0 0 20 20" fill="none" xmlns="http://www.w3.org/2000/svg">
<path d="M5.83276 2.5V4.12493C5.40177 4.24513 4.9747 4.38433 4.5528 4.54254C3.78538 4.83032 3.19988 5.46494 2.97472 6.253L2.77318 6.95839C2.72181 7.1382 2.67409 7.31877 2.63001 7.5H17.3687C17.3247 7.31877 17.2769 7.1382 17.2256 6.95839L17.024 6.253C16.7989 5.46494 16.2134 4.83032 15.4459 4.54254C15.0241 4.38435 14.5971 4.24515 14.1661 4.12496V2.5H12.4994V3.75765C10.8439 3.48731 9.15499 3.4873 7.49943 3.75763V2.5H5.83276Z" fill="#676C75"/>
<path fill-rule="evenodd" clip-rule="evenodd" d="M17.6695 9.16667H2.32928C2.10902 11.0177 2.25699 12.9017 2.77318 14.7084L2.80788 14.8299C3.13263 15.9665 4.03925 16.8434 5.18604 17.1301C8.3463 17.9201 11.6524 17.9201 14.8127 17.1301C15.9595 16.8434 16.8661 15.9665 17.1909 14.8299L17.2256 14.7084C17.7417 12.9017 17.8897 11.0177 17.6695 9.16667ZM5.62443 11.1458C5.4892 11.2134 5.37955 11.3231 5.31193 11.4583C5.11521 11.8518 5.11521 12.3149 5.31193 12.7083C5.37955 12.8436 5.4892 12.9532 5.62443 13.0208C6.01788 13.2176 6.48098 13.2176 6.87443 13.0208C7.00966 12.9532 7.11931 12.8436 7.18693 12.7083C7.38365 12.3149 7.38365 11.8518 7.18693 11.4583C7.11931 11.3231 7.00966 11.2134 6.87443 11.1458C6.48098 10.9491 6.01788 10.9491 5.62443 11.1458ZM9.06193 11.4583C9.12955 11.3231 9.2392 11.2134 9.37443 11.1458C9.76788 10.9491 10.231 10.9491 10.6244 11.1458C10.7597 11.2134 10.8693 11.3231 10.9369 11.4583C11.1337 11.8518 11.1337 12.3149 10.9369 12.7083C10.8693 12.8436 10.7597 12.9532 10.6244 13.0208C10.231 13.2176 9.76788 13.2176 9.37443 13.0208C9.2392 12.9532 9.12955 12.8436 9.06193 12.7083C8.86521 12.3149 8.86521 11.8518 9.06193 11.4583ZM13.1244 11.1458C12.9892 11.2134 12.8795 11.3231 12.8119 11.4583C12.6152 11.8518 12.6152 12.3149 12.8119 12.7083C12.8795 12.8436 12.9892 12.9532 13.1244 13.0208C13.5179 13.2176 13.981 13.2176 14.3744 13.0208C14.5097 12.9532 14.6193 12.8436 14.6869 12.7083C14.8837 12.3149 14.8837 11.8518 14.6869 11.4583C14.6193 11.3231 14.5097 11.2134 14.3744 11.1458C13.981 10.9491 13.5179 10.9491 13.1244 11.1458Z" fill="#676C75"/>
</svg>
