<svg width="15" height="15" viewBox="0 0 15 15" fill="none" xmlns="http://www.w3.org/2000/svg">
<path d="M7.5 0.9375C9.24048 0.9375 10.9097 1.6289 12.1404 2.85961C13.3711 4.09032 14.0625 5.75952 14.0625 7.5C14.0625 9.24048 13.3711 10.9097 12.1404 12.1404C10.9097 13.3711 9.24048 14.0625 7.5 14.0625C5.75952 14.0625 4.09032 13.3711 2.85961 12.1404C1.6289 10.9097 0.9375 9.24048 0.9375 7.5C0.9375 5.75952 1.6289 4.09032 2.85961 2.85961C4.09032 1.6289 5.75952 0.9375 7.5 0.9375ZM7.5 15C9.48912 15 11.3968 14.2098 12.8033 12.8033C14.2098 11.3968 15 9.48912 15 7.5C15 5.51088 14.2098 3.60322 12.8033 2.1967C11.3968 0.790176 9.48912 0 7.5 0C5.51088 0 3.60322 0.790176 2.1967 2.1967C0.790176 3.60322 0 5.51088 0 7.5C0 9.48912 0.790176 11.3968 2.1967 12.8033C3.60322 14.2098 5.51088 15 7.5 15Z" fill="white"/>
<path d="M7.49977 10.0248C7.37183 10.0248 7.24384 9.97569 7.14634 9.87743L4.14648 6.85881C3.95117 6.66229 3.95117 6.34392 4.14648 6.14739C4.34178 5.95087 4.65817 5.95087 4.85348 6.14739L7.49977 8.81109L10.1465 6.14779C10.3418 5.95126 10.6582 5.95126 10.8535 6.14779C11.0488 6.34431 11.0488 6.66268 10.8535 6.85921L7.85366 9.87782C7.756 9.97608 7.62788 10.0248 7.49977 10.0248Z" fill="white"/>
</svg>
