<svg width="16" height="16" viewBox="0 0 16 16" fill="none" xmlns="http://www.w3.org/2000/svg">
<path fill-rule="evenodd" clip-rule="evenodd" d="M5.20004 2.26665C6.00782 1.66081 6.99031 1.33331 8.00004 1.33331H8.97171C10.2338 1.33331 11.4442 1.83468 12.3366 2.72711C12.9465 3.33699 13.3792 4.10114 13.5884 4.93788L13.6639 5.23989C13.8981 6.17665 13.8981 7.15664 13.6639 8.0934L13.6114 8.30346C13.3932 9.17609 13.0028 9.9963 12.4631 10.7159L11.5421 11.9439C11.4066 12.1245 11.3334 12.3443 11.3334 12.5701V13.4545C11.3334 14.124 10.7907 14.6666 10.1212 14.6666H6.94271C6.42209 14.6666 6.00004 14.2446 6.00004 13.724V13.3743C6.00004 12.8725 5.65851 12.4351 5.17168 12.3134L4.68906 12.1928C3.89231 11.9936 3.33337 11.2777 3.33337 10.4564V10.0563C3.33337 10.0252 3.30814 9.99998 3.27702 9.99998C2.48647 9.99998 2.0912 9.99998 1.89227 9.77585C1.84395 9.7214 1.80487 9.65941 1.77659 9.59234C1.66015 9.3162 1.83061 8.95957 2.17152 8.24631L3.33372 5.81474C3.35095 4.44821 4.00142 3.16561 5.09642 2.34436L5.20004 2.26665ZM6.8297 4.79852C7.18497 4.68009 7.57274 4.70765 7.9077 4.87513L8.46304 5.1528C8.59127 5.21692 8.74221 5.21692 8.87045 5.1528L9.42579 4.87513C9.76075 4.70765 10.1485 4.68009 10.5038 4.79852L10.5259 4.8059C11.1562 5.01599 11.6508 5.51055 11.8609 6.14082C11.989 6.5254 11.9428 6.94681 11.7342 7.29443L11.6361 7.45797C11.0998 8.35174 10.3518 9.09976 9.45804 9.63602L9.33232 9.71145C8.92265 9.95726 8.41084 9.95726 8.00117 9.71145L7.87545 9.63602C6.98168 9.09976 6.23366 8.35174 5.69739 7.45797L5.59927 7.29443C5.3907 6.94681 5.34444 6.5254 5.47263 6.14082C5.68272 5.51055 6.17729 5.01599 6.80755 4.8059L6.8297 4.79852Z" fill="white"/>
</svg>
