<svg width="15" height="23" viewBox="0 0 15 23" fill="none" xmlns="http://www.w3.org/2000/svg">
<g clip-path="url(#clip0_3779_46)">
<path d="M12 2.15625C12 3.34713 10.9922 4.3125 9.75 4.3125C8.50781 4.3125 7.5 3.34713 7.5 2.15625C7.5 0.965371 8.50781 0 9.75 0C10.9922 0 12 0.965371 12 2.15625ZM5.52188 8.38242L5.49375 8.3959L4.50188 8.82715C3.64781 9.2 2.99344 9.89629 2.69672 10.7498L2.56734 11.1227C2.37094 11.6887 1.73391 11.9537 1.14422 11.8055C0.555 11.6168 0.236297 10.9654 0.43275 10.4398L0.562031 10.067C1.05703 8.64746 2.14688 7.48398 3.57094 6.86406L4.56469 6.43281C5.59688 5.98359 6.71719 5.75 7.85156 5.75C10.1438 5.75 12.1641 7.18301 12.8391 9.28086L13.3688 10.925L14.6297 12.1738C15.1078 12.5961 15.1078 13.2789 14.6297 13.6607C14.2313 14.1189 13.5188 14.1189 13.0781 13.6607L11.7094 12.3895C11.4938 12.1828 11.3344 11.9268 11.2453 11.6482L10.7859 10.2152L9.4125 14.4289L11.7609 16.2572C12.0844 16.5088 12.3094 16.8592 12.4031 17.2096L13.4719 21.6793C13.6125 22.2588 13.2328 22.8383 12.6281 22.973C12.0234 23.1078 11.4188 22.7439 11.2781 22.1645L10.2422 17.852L5.34375 14.0426C4.49813 13.3822 4.16531 12.2861 4.51078 11.2934L5.52188 8.38242ZM8.05781 7.91523L6.64688 11.9762C6.59531 12.1199 6.64219 12.2727 6.76406 12.367L7.53281 12.9645L9.05156 8.30156C9.06563 8.25664 9.08438 8.21172 9.10313 8.17129C8.77969 8.02754 8.42813 7.9377 8.05781 7.91523ZM3.54141 18.0811L4.67297 15.3723L6.50156 16.7963L5.60156 18.9525C5.50781 19.1771 5.36719 19.3838 5.18438 19.5545L1.92047 22.6451C1.48125 23.1033 0.76875 23.1033 0.329484 22.6451C-0.109828 22.2633 -0.109828 21.5805 0.329484 21.1582L3.54141 18.0811Z" fill="#F2994A"/>
</g>
<defs>
<clipPath id="clip0_3779_46">
<rect width="15" height="23" fill="white"/>
</clipPath>
</defs>
</svg>
