<svg width="14" height="14" viewBox="0 0 14 14" fill="none" xmlns="http://www.w3.org/2000/svg">
<g clip-path="url(#clip0_80_471)">
<path d="M13.9732 3.23274L9.06267 8.14324C8.51513 8.68939 7.77335 8.9961 7 8.9961C6.22665 8.9961 5.48487 8.68939 4.93733 8.14324L0.0268333 3.23274C0.0186667 3.32491 0 3.40833 0 3.49991V10.4999C0.00092625 11.2732 0.308514 12.0145 0.855295 12.5613C1.40208 13.1081 2.1434 13.4157 2.91667 13.4166H11.0833C11.8566 13.4157 12.5979 13.1081 13.1447 12.5613C13.6915 12.0145 13.9991 11.2732 14 10.4999V3.49991C14 3.40833 13.9813 3.32491 13.9732 3.23274Z" fill="white"/>
<path d="M8.23792 7.3184L13.5661 1.98965C13.308 1.56167 12.9439 1.20743 12.5091 0.961079C12.0742 0.714734 11.5832 0.584602 11.0834 0.583237H2.91675C2.41696 0.584602 1.92596 0.714734 1.4911 0.961079C1.05624 1.20743 0.692195 1.56167 0.434082 1.98965L5.76225 7.3184C6.091 7.64584 6.53609 7.82968 7.00008 7.82968C7.46408 7.82968 7.90917 7.64584 8.23792 7.3184Z" fill="white"/>
</g>
<defs>
<clipPath id="clip0_80_471">
<rect width="14" height="14" fill="white"/>
</clipPath>
</defs>
</svg>
