<svg width="9" height="14" viewBox="0 0 9 14" fill="none" xmlns="http://www.w3.org/2000/svg">
<path d="M1.35 0.583252C0.604688 0.583252 0 1.30178 0 2.18742V11.8124C0 12.6981 0.604688 13.4166 1.35 13.4166H2.25C2.99531 13.4166 3.6 12.6981 3.6 11.8124V2.18742C3.6 1.30178 2.99531 0.583252 2.25 0.583252H1.35ZM6.75 0.583252C6.00469 0.583252 5.4 1.30178 5.4 2.18742V11.8124C5.4 12.6981 6.00469 13.4166 6.75 13.4166H7.65C8.39531 13.4166 9 12.6981 9 11.8124V2.18742C9 1.30178 8.39531 0.583252 7.65 0.583252H6.75Z" fill="white"/>
</svg>
