<svg width="25" height="24" viewBox="0 0 25 24" fill="none" xmlns="http://www.w3.org/2000/svg">
<path fill-rule="evenodd" clip-rule="evenodd" d="M6.85203 3.47848C10.3257 2.48601 14.0078 2.48601 17.4815 3.47848C19.0326 3.92166 20.2451 5.13415 20.6883 6.68528C21.6807 10.1589 21.6807 13.8411 20.6883 17.3147C20.2451 18.8659 19.0326 20.0784 17.4815 20.5215C14.0078 21.514 10.3257 21.514 6.85203 20.5215C5.3009 20.0784 4.08841 18.8659 3.64523 17.3147C2.65276 13.8411 2.65276 10.1589 3.64523 6.68528C4.08841 5.13415 5.3009 3.92166 6.85203 3.47848ZM11.1667 6L11.1667 8.23004C11.1657 9.96801 11.165 11.1768 11.6946 12.2361C12.2242 13.2953 13.1917 14.02 14.5827 15.062L15.5667 15.8L16.7667 14.2L15.9667 13.6C14.3162 12.3621 13.7754 11.9255 13.4835 11.3416C13.1916 10.7578 13.1667 10.0632 13.1667 8V6H11.1667Z" fill="#FF8036"/>
</svg>
