<svg width="25" height="24" viewBox="0 0 25 24" fill="none" xmlns="http://www.w3.org/2000/svg">
<path d="M10.9957 5.16219L12.5142 6.68073C12.6905 6.85701 12.9763 6.85701 13.1526 6.68074L14.6711 5.16219C15.9624 3.8709 17.9351 3.55077 19.5685 4.36746C20.3896 4.77799 21.0553 5.44376 21.4659 6.26483L21.6697 6.67258C22.4078 8.14862 22.4585 9.87473 21.8084 11.3916L21.7645 11.4941C20.5113 14.4181 18.3392 16.8538 15.5771 18.4321L14.6134 18.9828C13.5104 19.613 12.1564 19.613 11.0534 18.9828L10.0897 18.4321C7.32766 16.8538 5.15547 14.4181 3.90235 11.4941L3.85841 11.3916C3.20833 9.87473 3.25906 8.14862 3.99708 6.67258L4.20096 6.26483C4.61149 5.44376 5.27725 4.77799 6.09832 4.36746C7.73169 3.55077 9.7044 3.8709 10.9957 5.16219Z" fill="#676C75"/>
</svg>
