<svg width="6" height="13" viewBox="0 0 6 13" fill="none" xmlns="http://www.w3.org/2000/svg">
<path d="M4.56906e-06 6.34908C-0.000616288 6.00156 0.0672643 5.65732 0.199765 5.33605C0.332266 5.01478 0.526788 4.72278 0.772212 4.47674L5.0934 0.155548C5.193 0.0559522 5.32808 2.93707e-08 5.46893 2.3214e-08C5.60978 1.70572e-08 5.74486 0.0559522 5.84445 0.155548C5.94405 0.255143 6 0.390224 6 0.531073C6 0.671923 5.94405 0.807004 5.84445 0.906599L1.52326 5.22779C1.22612 5.5253 1.05922 5.92859 1.05922 6.34908C1.05922 6.76956 1.22612 7.17285 1.52326 7.47036L5.84445 11.7916C5.94405 11.8911 6 12.0262 6 12.1671C6 12.3079 5.94405 12.443 5.84445 12.5426C5.74486 12.6422 5.60978 12.6982 5.46893 12.6982C5.32808 12.6982 5.193 12.6422 5.0934 12.5426L0.772212 8.22141C0.526788 7.97537 0.332266 7.68337 0.199765 7.3621C0.0672644 7.04083 -0.000616258 6.6966 4.56906e-06 6.34908Z" fill="#E0E0E0"/>
</svg>
