<svg width="20" height="20" viewBox="0 0 20 20" fill="none" xmlns="http://www.w3.org/2000/svg">
<path d="M12.0903 0.696849C10.7335 0.244583 9.25771 0.247553 7.90091 0.699818C7.34472 0.885215 6.92347 1.35112 6.7985 1.92392L6.46477 3.45353C6.19513 4.68936 6.06031 5.30728 5.63731 5.72446C5.2143 6.14165 4.59457 6.26789 3.35512 6.52037L1.93705 6.80923C1.35732 6.92733 0.884504 7.34677 0.697412 7.90805C0.245146 9.26485 0.244542 10.7335 0.696808 12.0903C0.884332 12.6529 1.35892 13.0719 1.94041 13.1882L3.38518 13.4771C4.65267 13.7306 5.28641 13.8574 5.7146 14.2856C6.14279 14.7138 6.26954 15.3475 6.52304 16.615L6.81199 18.0598C6.92829 18.6412 7.34725 19.1158 7.90982 19.3034C9.26662 19.7556 10.7335 19.7556 12.0903 19.3034C12.6529 19.1158 13.0718 18.6412 13.1881 18.0598L13.4771 16.615C13.7306 15.3475 13.8573 14.7138 14.2855 14.2856C14.7137 13.8574 15.3475 13.7306 16.6149 13.4771L18.0597 13.1882C18.6412 13.0719 19.1158 12.6529 19.3033 12.0903C19.7556 10.7335 19.7556 9.26666 19.3033 7.90986C19.1158 7.34729 18.6412 6.92833 18.0597 6.81203L16.6149 6.52308C15.3475 6.26958 14.7137 6.14283 14.2855 5.71464C13.8573 5.28645 13.7306 4.65271 13.4771 3.38522L13.1881 1.94045C13.0718 1.35896 12.6529 0.884373 12.0903 0.696849Z" fill="#F3F3F4"/>
</svg>
