<svg width="15" height="14" viewBox="0 0 15 14" fill="none" xmlns="http://www.w3.org/2000/svg">
<path d="M10.9181 1.16667H10.6265V0.875C10.6265 0.642936 10.5343 0.420376 10.3702 0.256282C10.2061 0.0921872 9.98353 0 9.75146 0C9.5194 0 9.29684 0.0921872 9.13275 0.256282C8.96865 0.420376 8.87646 0.642936 8.87646 0.875V1.16667H5.37646V0.875C5.37646 0.642936 5.28428 0.420376 5.12018 0.256282C4.95609 0.0921872 4.73353 0 4.50146 0C4.2694 0 4.04684 0.0921872 3.88275 0.256282C3.71865 0.420376 3.62646 0.642936 3.62646 0.875V1.16667H3.3348C2.4839 1.16667 1.66784 1.50469 1.06616 2.10637C0.464485 2.70805 0.126465 3.5241 0.126465 4.375L0.126465 10.7917C0.126465 11.6426 0.464485 12.4586 1.06616 13.0603C1.66784 13.662 2.4839 14 3.3348 14H10.9181C11.769 14 12.5851 13.662 13.1868 13.0603C13.7884 12.4586 14.1265 11.6426 14.1265 10.7917V4.375C14.1265 3.5241 13.7884 2.70805 13.1868 2.10637C12.5851 1.50469 11.769 1.16667 10.9181 1.16667ZM10.9181 12.25H3.3348C2.94802 12.25 2.57709 12.0964 2.3036 11.8229C2.03011 11.5494 1.87646 11.1784 1.87646 10.7917V5.83333H12.3765V10.7917C12.3765 11.1784 12.2228 11.5494 11.9493 11.8229C11.6758 12.0964 11.3049 12.25 10.9181 12.25Z" fill="white"/>
</svg>
