<svg width="20" height="20" viewBox="0 0 20 20" fill="none" xmlns="http://www.w3.org/2000/svg">
<path d="M8.44534 8.89661C9.45449 8.56023 10.5455 8.56023 11.5547 8.89661C11.735 8.95674 11.8766 9.09828 11.9367 9.27866C12.2731 10.2878 12.2731 11.3788 11.9367 12.388C11.8766 12.5683 11.735 12.7099 11.5547 12.77C10.5455 13.1064 9.45449 13.1064 8.44534 12.77C8.26496 12.7099 8.12342 12.5683 8.0633 12.388C7.72691 11.3788 7.72691 10.2878 8.0633 9.27865C8.12342 9.09828 8.26496 8.95674 8.44534 8.89661Z" fill="#111214"/>
<path fill-rule="evenodd" clip-rule="evenodd" d="M5.63088 4.99998C4.27094 4.99998 3.07575 5.90151 2.70215 7.20913L2.66964 7.32289C2.01627 9.60971 2.06909 12.0406 2.82118 14.2969C3.14016 15.2538 3.92594 15.9815 4.90454 16.2261L5.11944 16.2798C8.32384 17.0809 11.6762 17.0809 14.8806 16.2798L15.0955 16.2261C16.0741 15.9815 16.8598 15.2538 17.1788 14.2969C17.9309 12.0406 17.9837 9.60971 17.3304 7.32289L17.2979 7.20913C16.9242 5.90151 15.7291 4.99998 14.3691 4.99998H13.9C13.5527 4.99998 13.2352 4.80375 13.0799 4.4931L12.7022 3.73771C12.5727 3.47878 12.3457 3.28188 12.0711 3.19034C10.7267 2.74222 9.27328 2.74222 7.92893 3.19034C7.65429 3.28188 7.42727 3.47878 7.2978 3.73771L6.9201 4.4931C6.76478 4.80375 6.44728 4.99998 6.09996 4.99998H5.63088ZM12.0817 7.31547C10.7304 6.86505 9.26955 6.86505 7.91829 7.31547C7.24024 7.54149 6.70817 8.07356 6.48216 8.75161C6.03174 10.1029 6.03174 11.5638 6.48216 12.915C6.70817 13.5931 7.24024 14.1251 7.91829 14.3512C9.26955 14.8016 10.7304 14.8016 12.0817 14.3512C12.7598 14.1251 13.2918 13.5931 13.5178 12.915C13.9683 11.5638 13.9683 10.1029 13.5178 8.75161C13.2918 8.07356 12.7598 7.54149 12.0817 7.31547Z" fill="#111214"/>
</svg>
