<svg width="15" height="15" viewBox="0 0 15 15" fill="none" xmlns="http://www.w3.org/2000/svg">
<path d="M4.36816 1.89844L4.06348 2.8125H1.875C0.84082 2.8125 0 3.65332 0 4.6875V12.1875C0 13.2217 0.84082 14.0625 1.875 14.0625H13.125C14.1592 14.0625 15 13.2217 15 12.1875V4.6875C15 3.65332 14.1592 2.8125 13.125 2.8125H10.9365L10.6318 1.89844C10.4414 1.32422 9.90527 0.9375 9.29883 0.9375H5.70117C5.09473 0.9375 4.55859 1.32422 4.36816 1.89844ZM7.5 11.25C5.94727 11.25 4.6875 9.99023 4.6875 8.4375C4.6875 6.88477 5.94727 5.625 7.5 5.625C9.05273 5.625 10.3125 6.88477 10.3125 8.4375C10.3125 9.99023 9.05273 11.25 7.5 11.25Z" fill="#828282"/>
</svg>
