<svg width="26" height="26" viewBox="0 0 26 26" fill="none" xmlns="http://www.w3.org/2000/svg">
<path d="M0 3.25C0 1.45742 1.45742 0 3.25 0H22.75C24.5426 0 26 1.45742 26 3.25V17.875C26 19.6676 24.5426 21.125 22.75 21.125H15.7066L9.425 25.8375C9.18125 26.0203 8.85117 26.0508 8.57188 25.9137C8.29258 25.7766 8.125 25.4973 8.125 25.1875V21.125H3.25C1.45742 21.125 0 19.6676 0 17.875V3.25ZM7.71875 7.3125C7.04336 7.3125 6.5 7.85586 6.5 8.53125C6.5 9.20664 7.04336 9.75 7.71875 9.75H18.2812C18.9566 9.75 19.5 9.20664 19.5 8.53125C19.5 7.85586 18.9566 7.3125 18.2812 7.3125H7.71875ZM7.71875 12.1875C7.04336 12.1875 6.5 12.7309 6.5 13.4062C6.5 14.0816 7.04336 14.625 7.71875 14.625H13.4062C14.0816 14.625 14.625 14.0816 14.625 13.4062C14.625 12.7309 14.0816 12.1875 13.4062 12.1875H7.71875Z" fill="white"/>
</svg>
