<svg width="13" height="14" viewBox="0 0 13 14" fill="none" xmlns="http://www.w3.org/2000/svg">
<path d="M12.6181 11.4715C13.1259 12.0018 13.1259 12.8609 12.6181 13.3912C12.3663 13.6564 12.0331 13.7879 11.7 13.7879C11.3669 13.7879 11.0346 13.6553 10.7811 13.3902L6.5 8.92182L2.21934 13.3891C1.96544 13.6564 1.63272 13.7879 1.3 13.7879C0.967281 13.7879 0.634969 13.6564 0.380859 13.3891C-0.126953 12.8588 -0.126953 11.9997 0.380859 11.4694L4.66273 6.99788L0.380859 2.52848C-0.126953 1.99818 -0.126953 1.13909 0.380859 0.608787C0.888672 0.0784838 1.71133 0.0784838 2.21914 0.608787L6.5 5.08242L10.7819 0.610908C11.2897 0.0806051 12.1123 0.0806051 12.6202 0.610908C13.128 1.14121 13.128 2.0003 12.6202 2.5306L8.33828 7.00212L12.6181 11.4715Z" fill="#828282"/>
</svg>
