<svg width="15" height="15" viewBox="0 0 15 15" fill="none" xmlns="http://www.w3.org/2000/svg">
<path d="M7.5 0.9375C9.24048 0.9375 10.9097 1.6289 12.1404 2.85961C13.3711 4.09032 14.0625 5.75952 14.0625 7.5C14.0625 9.24048 13.3711 10.9097 12.1404 12.1404C10.9097 13.3711 9.24048 14.0625 7.5 14.0625C5.75952 14.0625 4.09032 13.3711 2.85961 12.1404C1.6289 10.9097 0.9375 9.24048 0.9375 7.5C0.9375 5.75952 1.6289 4.09032 2.85961 2.85961C4.09032 1.6289 5.75952 0.9375 7.5 0.9375ZM7.5 15C9.48912 15 11.3968 14.2098 12.8033 12.8033C14.2098 11.3968 15 9.48912 15 7.5C15 5.51088 14.2098 3.60322 12.8033 2.1967C11.3968 0.790176 9.48912 0 7.5 0C5.51088 0 3.60322 0.790176 2.1967 2.1967C0.790176 3.60322 0 5.51088 0 7.5C0 9.48912 0.790176 11.3968 2.1967 12.8033C3.60322 14.2098 5.51088 15 7.5 15ZM5.29395 5.29395C5.1123 5.47559 5.1123 5.77441 5.29395 5.95605L6.83789 7.5L5.29395 9.04395C5.1123 9.22559 5.1123 9.52441 5.29395 9.70605C5.47559 9.8877 5.77441 9.8877 5.95605 9.70605L7.5 8.16211L9.04395 9.70605C9.22559 9.8877 9.52441 9.8877 9.70605 9.70605C9.8877 9.52441 9.8877 9.22559 9.70605 9.04395L8.16211 7.5L9.70605 5.95605C9.8877 5.77441 9.8877 5.47559 9.70605 5.29395C9.52441 5.1123 9.22559 5.1123 9.04395 5.29395L7.5 6.83789L5.95605 5.29395C5.77441 5.1123 5.47559 5.1123 5.29395 5.29395Z" fill="#EA4237"/>
</svg>
