<svg width="213" height="108" viewBox="0 0 213 108" fill="none" xmlns="http://www.w3.org/2000/svg">
<path d="M197.875 107.5C206.781 107.5 214.124 100.24 212.793 91.4348C209.383 68.8695 198.848 47.8202 182.514 31.486C162.354 11.3259 135.011 0 106.5 0C77.9892 0 50.6462 11.3259 30.486 31.486C14.1519 47.8201 3.61707 68.8695 0.206743 91.4348C-1.12406 100.24 6.21941 107.5 15.125 107.5C24.0306 107.5 31.0769 100.199 32.9709 91.4975C36.0148 77.5125 43.0125 64.5679 53.2902 54.2902C67.4023 40.1781 86.5425 32.25 106.5 32.25C126.458 32.25 145.598 40.1781 159.71 54.2902C169.987 64.5679 176.985 77.5125 180.029 91.4975C181.923 100.199 188.969 107.5 197.875 107.5Z" fill="url(#paint0_linear_80_223)"/>
<defs>
<linearGradient id="paint0_linear_80_223" x1="10.5" y1="107" x2="200" y2="107" gradientUnits="userSpaceOnUse">
<stop stop-color="#16CC66"/>
<stop offset="0.494792" stop-color="#1AE5BF"/>
<stop offset="1" stop-color="#EA4237"/>
</linearGradient>
</defs>
</svg>
