<svg width="343" height="186" viewBox="0 0 343 186" fill="none" xmlns="http://www.w3.org/2000/svg">
<circle cx="25.5" cy="107.5" r="3" fill="#4F4F4F" stroke="#E0E0E0"/>
<circle cx="83.5" cy="83.5" r="3" fill="#4F4F4F" stroke="#E0E0E0"/>
<circle cx="144.5" cy="84.5" r="3" fill="#4F4F4F" stroke="#E0E0E0"/>
<circle cx="205.5" cy="74.5" r="3" fill="#4F4F4F" stroke="#E0E0E0"/>
<circle cx="261.5" cy="87.5" r="3" fill="#4F4F4F" stroke="#E0E0E0"/>
<rect width="343" height="186" rx="5" fill="#4F4F4F"/>
<path d="M22.376 145.684V147.28H19.868V154H17.996V147.28H15.488V145.684H22.376ZM23.4591 154V144.976L25.2471 144.688V147.712C25.3671 147.672 25.5191 147.636 25.7031 147.604C25.8951 147.564 26.0791 147.544 26.2551 147.544C26.7671 147.544 27.1911 147.616 27.5271 147.76C27.8711 147.896 28.1431 148.092 28.3431 148.348C28.5511 148.604 28.6951 148.908 28.7751 149.26C28.8631 149.612 28.9071 150.004 28.9071 150.436V154H27.1191V150.652C27.1191 150.076 27.0431 149.668 26.8911 149.428C26.7471 149.188 26.4751 149.068 26.0751 149.068C25.9151 149.068 25.7631 149.084 25.6191 149.116C25.4831 149.14 25.3591 149.168 25.2471 149.2V154H23.4591ZM35.9135 153.784C35.6095 153.872 35.2175 153.952 34.7375 154.024C34.2575 154.104 33.7535 154.144 33.2255 154.144C32.6895 154.144 32.2415 154.072 31.8815 153.928C31.5295 153.784 31.2495 153.584 31.0415 153.328C30.8335 153.064 30.6855 152.752 30.5975 152.392C30.5095 152.032 30.4655 151.636 30.4655 151.204V147.688H32.2535V150.988C32.2535 151.564 32.3295 151.98 32.4815 152.236C32.6335 152.492 32.9175 152.62 33.3335 152.62C33.4615 152.62 33.5975 152.616 33.7415 152.608C33.8855 152.592 34.0135 152.576 34.1255 152.56V147.688H35.9135V153.784ZM19.8266 163.836C19.8266 162.444 20.0706 161.372 20.5586 160.62C21.0546 159.868 21.7386 159.492 22.6106 159.492C23.4826 159.492 24.1626 159.868 24.6506 160.62C25.1466 161.372 25.3946 162.444 25.3946 163.836C25.3946 165.228 25.1466 166.3 24.6506 167.052C24.1626 167.804 23.4826 168.18 22.6106 168.18C21.7386 168.18 21.0546 167.804 20.5586 167.052C20.0706 166.3 19.8266 165.228 19.8266 163.836ZM24.2186 163.836C24.2186 163.38 24.1906 162.948 24.1346 162.54C24.0866 162.132 23.9986 161.776 23.8706 161.472C23.7506 161.168 23.5866 160.928 23.3786 160.752C23.1706 160.568 22.9146 160.476 22.6106 160.476C22.3066 160.476 22.0506 160.568 21.8426 160.752C21.6346 160.928 21.4666 161.168 21.3386 161.472C21.2186 161.776 21.1306 162.132 21.0746 162.54C21.0266 162.948 21.0026 163.38 21.0026 163.836C21.0026 164.292 21.0266 164.724 21.0746 165.132C21.1306 165.54 21.2186 165.896 21.3386 166.2C21.4666 166.504 21.6346 166.748 21.8426 166.932C22.0506 167.108 22.3066 167.196 22.6106 167.196C22.9146 167.196 23.1706 167.108 23.3786 166.932C23.5866 166.748 23.7506 166.504 23.8706 166.2C23.9986 165.896 24.0866 165.54 24.1346 165.132C24.1906 164.724 24.2186 164.292 24.2186 163.836ZM27.116 161.4C27.572 161.224 28.016 161 28.448 160.728C28.88 160.448 29.276 160.1 29.636 159.684H30.428V168H29.312V161.232C29.216 161.32 29.096 161.412 28.952 161.508C28.816 161.604 28.664 161.696 28.496 161.784C28.336 161.872 28.164 161.956 27.98 162.036C27.804 162.116 27.632 162.184 27.464 162.24L27.116 161.4Z" fill="white"/>
<path d="M81.3214 145.684V147.28H78.8134V154H76.9414V147.28H74.4334V145.684H81.3214ZM86.9604 153.784C86.6564 153.872 86.2644 153.952 85.7844 154.024C85.3044 154.104 84.8004 154.144 84.2724 154.144C83.7364 154.144 83.2884 154.072 82.9284 153.928C82.5764 153.784 82.2964 153.584 82.0884 153.328C81.8804 153.064 81.7324 152.752 81.6444 152.392C81.5564 152.032 81.5124 151.636 81.5124 151.204V147.688H83.3004V150.988C83.3004 151.564 83.3764 151.98 83.5284 152.236C83.6804 152.492 83.9644 152.62 84.3804 152.62C84.5084 152.62 84.6444 152.616 84.7884 152.608C84.9324 152.592 85.0604 152.576 85.1724 152.56V147.688H86.9604V153.784ZM88.3388 150.892C88.3388 150.332 88.4228 149.844 88.5908 149.428C88.7668 149.004 88.9948 148.652 89.2748 148.372C89.5548 148.092 89.8748 147.88 90.2348 147.736C90.6028 147.592 90.9788 147.52 91.3628 147.52C92.2588 147.52 92.9668 147.796 93.4868 148.348C94.0068 148.892 94.2668 149.696 94.2668 150.76C94.2668 150.864 94.2628 150.98 94.2548 151.108C94.2468 151.228 94.2388 151.336 94.2308 151.432H90.1748C90.2148 151.8 90.3868 152.092 90.6908 152.308C90.9948 152.524 91.4028 152.632 91.9148 152.632C92.2428 152.632 92.5628 152.604 92.8748 152.548C93.1948 152.484 93.4548 152.408 93.6548 152.32L93.8948 153.772C93.7988 153.82 93.6708 153.868 93.5108 153.916C93.3508 153.964 93.1708 154.004 92.9708 154.036C92.7788 154.076 92.5708 154.108 92.3468 154.132C92.1228 154.156 91.8988 154.168 91.6748 154.168C91.1068 154.168 90.6108 154.084 90.1868 153.916C89.7708 153.748 89.4228 153.52 89.1428 153.232C88.8708 152.936 88.6668 152.588 88.5308 152.188C88.4028 151.788 88.3388 151.356 88.3388 150.892ZM92.5388 150.208C92.5308 150.056 92.5028 149.908 92.4548 149.764C92.4148 149.62 92.3468 149.492 92.2508 149.38C92.1628 149.268 92.0468 149.176 91.9028 149.104C91.7668 149.032 91.5948 148.996 91.3868 148.996C91.1868 148.996 91.0148 149.032 90.8708 149.104C90.7268 149.168 90.6068 149.256 90.5108 149.368C90.4148 149.48 90.3388 149.612 90.2828 149.764C90.2348 149.908 90.1988 150.056 90.1748 150.208H92.5388ZM78.3266 163.836C78.3266 162.444 78.5706 161.372 79.0586 160.62C79.5546 159.868 80.2386 159.492 81.1106 159.492C81.9826 159.492 82.6626 159.868 83.1506 160.62C83.6466 161.372 83.8946 162.444 83.8946 163.836C83.8946 165.228 83.6466 166.3 83.1506 167.052C82.6626 167.804 81.9826 168.18 81.1106 168.18C80.2386 168.18 79.5546 167.804 79.0586 167.052C78.5706 166.3 78.3266 165.228 78.3266 163.836ZM82.7186 163.836C82.7186 163.38 82.6906 162.948 82.6346 162.54C82.5866 162.132 82.4986 161.776 82.3706 161.472C82.2506 161.168 82.0866 160.928 81.8786 160.752C81.6706 160.568 81.4146 160.476 81.1106 160.476C80.8066 160.476 80.5506 160.568 80.3426 160.752C80.1346 160.928 79.9666 161.168 79.8386 161.472C79.7186 161.776 79.6306 162.132 79.5746 162.54C79.5266 162.948 79.5026 163.38 79.5026 163.836C79.5026 164.292 79.5266 164.724 79.5746 165.132C79.6306 165.54 79.7186 165.896 79.8386 166.2C79.9666 166.504 80.1346 166.748 80.3426 166.932C80.5506 167.108 80.8066 167.196 81.1106 167.196C81.4146 167.196 81.6706 167.108 81.8786 166.932C82.0866 166.748 82.2506 166.504 82.3706 166.2C82.4986 165.896 82.5866 165.54 82.6346 165.132C82.6906 164.724 82.7186 164.292 82.7186 163.836ZM90.104 161.808C90.104 162.096 90.044 162.376 89.924 162.648C89.812 162.912 89.66 163.176 89.468 163.44C89.276 163.696 89.06 163.952 88.82 164.208C88.58 164.456 88.34 164.7 88.1 164.94C87.964 165.076 87.804 165.236 87.62 165.42C87.444 165.604 87.276 165.796 87.116 165.996C86.956 166.196 86.82 166.388 86.708 166.572C86.604 166.756 86.552 166.916 86.552 167.052H90.38V168H85.34C85.332 167.952 85.328 167.904 85.328 167.856C85.328 167.808 85.328 167.764 85.328 167.724C85.328 167.348 85.388 167 85.508 166.68C85.636 166.352 85.8 166.044 86 165.756C86.2 165.468 86.424 165.196 86.672 164.94C86.92 164.684 87.164 164.436 87.404 164.196C87.604 164.004 87.792 163.816 87.968 163.632C88.152 163.44 88.312 163.252 88.448 163.068C88.592 162.876 88.704 162.68 88.784 162.48C88.872 162.28 88.916 162.068 88.916 161.844C88.916 161.604 88.876 161.4 88.796 161.232C88.724 161.064 88.624 160.924 88.496 160.812C88.368 160.7 88.216 160.62 88.04 160.572C87.872 160.516 87.692 160.488 87.5 160.488C87.268 160.488 87.056 160.52 86.864 160.584C86.672 160.648 86.5 160.724 86.348 160.812C86.196 160.892 86.068 160.98 85.964 161.076C85.86 161.164 85.78 161.232 85.724 161.28L85.172 160.488C85.244 160.408 85.352 160.312 85.496 160.2C85.64 160.08 85.812 159.968 86.012 159.864C86.212 159.76 86.436 159.672 86.684 159.6C86.932 159.528 87.2 159.492 87.488 159.492C88.36 159.492 89.012 159.696 89.444 160.104C89.884 160.504 90.104 161.072 90.104 161.808Z" fill="white"/>
<path d="M138.925 146.572C139.021 146.9 139.125 147.272 139.237 147.688C139.357 148.096 139.481 148.52 139.609 148.96C139.745 149.4 139.881 149.84 140.017 150.28C140.153 150.72 140.285 151.128 140.413 151.504C140.517 151.096 140.621 150.652 140.725 150.172C140.837 149.692 140.941 149.196 141.037 148.684C141.133 148.172 141.225 147.664 141.313 147.16C141.409 146.648 141.497 146.156 141.577 145.684H143.521C143.241 147.076 142.917 148.488 142.549 149.92C142.189 151.352 141.797 152.712 141.373 154H139.657C139.377 153.232 139.105 152.428 138.841 151.588C138.577 150.74 138.317 149.892 138.061 149.044C137.805 149.892 137.549 150.74 137.293 151.588C137.037 152.428 136.769 153.232 136.489 154H134.773C134.349 152.712 133.953 151.352 133.585 149.92C133.225 148.488 132.905 147.076 132.625 145.684H134.653C134.733 146.156 134.821 146.648 134.917 147.16C135.013 147.664 135.113 148.172 135.217 148.684C135.321 149.196 135.425 149.692 135.529 150.172C135.641 150.652 135.753 151.096 135.865 151.504C136.009 151.112 136.149 150.696 136.285 150.256C136.421 149.816 136.553 149.376 136.681 148.936C136.809 148.496 136.925 148.072 137.029 147.664C137.141 147.256 137.241 146.892 137.329 146.572H138.925ZM143.905 150.892C143.905 150.332 143.989 149.844 144.157 149.428C144.333 149.004 144.561 148.652 144.841 148.372C145.121 148.092 145.441 147.88 145.801 147.736C146.169 147.592 146.545 147.52 146.929 147.52C147.825 147.52 148.533 147.796 149.053 148.348C149.573 148.892 149.833 149.696 149.833 150.76C149.833 150.864 149.829 150.98 149.821 151.108C149.813 151.228 149.805 151.336 149.797 151.432H145.741C145.781 151.8 145.953 152.092 146.257 152.308C146.561 152.524 146.969 152.632 147.481 152.632C147.809 152.632 148.129 152.604 148.441 152.548C148.761 152.484 149.021 152.408 149.221 152.32L149.461 153.772C149.365 153.82 149.237 153.868 149.077 153.916C148.917 153.964 148.737 154.004 148.537 154.036C148.345 154.076 148.137 154.108 147.913 154.132C147.689 154.156 147.465 154.168 147.241 154.168C146.673 154.168 146.177 154.084 145.753 153.916C145.337 153.748 144.989 153.52 144.709 153.232C144.437 152.936 144.233 152.588 144.097 152.188C143.969 151.788 143.905 151.356 143.905 150.892ZM148.105 150.208C148.097 150.056 148.069 149.908 148.021 149.764C147.981 149.62 147.913 149.492 147.817 149.38C147.729 149.268 147.613 149.176 147.469 149.104C147.333 149.032 147.161 148.996 146.953 148.996C146.753 148.996 146.581 149.032 146.437 149.104C146.293 149.168 146.173 149.256 146.077 149.368C145.981 149.48 145.905 149.612 145.849 149.764C145.801 149.908 145.765 150.056 145.741 150.208H148.105ZM152.737 150.796C152.737 151.348 152.861 151.792 153.109 152.128C153.357 152.464 153.725 152.632 154.213 152.632C154.373 152.632 154.521 152.628 154.657 152.62C154.793 152.604 154.905 152.588 154.993 152.572V149.32C154.881 149.248 154.733 149.188 154.549 149.14C154.373 149.092 154.193 149.068 154.009 149.068C153.161 149.068 152.737 149.644 152.737 150.796ZM156.781 153.796C156.621 153.844 156.437 153.892 156.229 153.94C156.021 153.98 155.801 154.016 155.569 154.048C155.345 154.08 155.113 154.104 154.873 154.12C154.641 154.144 154.417 154.156 154.201 154.156C153.681 154.156 153.217 154.08 152.809 153.928C152.401 153.776 152.057 153.56 151.777 153.28C151.497 152.992 151.281 152.648 151.129 152.248C150.985 151.84 150.913 151.384 150.913 150.88C150.913 150.368 150.977 149.908 151.105 149.5C151.233 149.084 151.417 148.732 151.657 148.444C151.897 148.156 152.189 147.936 152.533 147.784C152.885 147.632 153.285 147.556 153.733 147.556C153.981 147.556 154.201 147.58 154.393 147.628C154.593 147.676 154.793 147.744 154.993 147.832V144.976L156.781 144.688V153.796ZM138.827 163.836C138.827 162.444 139.071 161.372 139.559 160.62C140.055 159.868 140.739 159.492 141.611 159.492C142.483 159.492 143.163 159.868 143.651 160.62C144.147 161.372 144.395 162.444 144.395 163.836C144.395 165.228 144.147 166.3 143.651 167.052C143.163 167.804 142.483 168.18 141.611 168.18C140.739 168.18 140.055 167.804 139.559 167.052C139.071 166.3 138.827 165.228 138.827 163.836ZM143.219 163.836C143.219 163.38 143.191 162.948 143.135 162.54C143.087 162.132 142.999 161.776 142.871 161.472C142.751 161.168 142.587 160.928 142.379 160.752C142.171 160.568 141.915 160.476 141.611 160.476C141.307 160.476 141.051 160.568 140.843 160.752C140.635 160.928 140.467 161.168 140.339 161.472C140.219 161.776 140.131 162.132 140.075 162.54C140.027 162.948 140.003 163.38 140.003 163.836C140.003 164.292 140.027 164.724 140.075 165.132C140.131 165.54 140.219 165.896 140.339 166.2C140.467 166.504 140.635 166.748 140.843 166.932C141.051 167.108 141.307 167.196 141.611 167.196C141.915 167.196 142.171 167.108 142.379 166.932C142.587 166.748 142.751 166.504 142.871 166.2C142.999 165.896 143.087 165.54 143.135 165.132C143.191 164.724 143.219 164.292 143.219 163.836ZM147.712 167.184C148.424 167.184 148.932 167.044 149.236 166.764C149.548 166.484 149.704 166.108 149.704 165.636C149.704 165.332 149.64 165.076 149.512 164.868C149.384 164.66 149.216 164.496 149.008 164.376C148.8 164.248 148.556 164.16 148.276 164.112C148.004 164.056 147.724 164.028 147.436 164.028H147.148V163.116H147.544C147.744 163.116 147.948 163.096 148.156 163.056C148.372 163.016 148.568 162.944 148.744 162.84C148.92 162.736 149.064 162.596 149.176 162.42C149.288 162.236 149.344 162.008 149.344 161.736C149.344 161.512 149.304 161.32 149.224 161.16C149.144 161 149.036 160.868 148.9 160.764C148.772 160.66 148.62 160.588 148.444 160.548C148.276 160.5 148.096 160.476 147.904 160.476C147.52 160.476 147.192 160.532 146.92 160.644C146.656 160.756 146.432 160.872 146.248 160.992L145.816 160.14C145.912 160.076 146.032 160.008 146.176 159.936C146.328 159.856 146.496 159.784 146.68 159.72C146.864 159.656 147.06 159.604 147.268 159.564C147.484 159.516 147.708 159.492 147.94 159.492C148.38 159.492 148.76 159.548 149.08 159.66C149.4 159.764 149.664 159.916 149.872 160.116C150.08 160.308 150.236 160.54 150.34 160.812C150.444 161.076 150.496 161.364 150.496 161.676C150.496 162.108 150.372 162.48 150.124 162.792C149.876 163.096 149.576 163.328 149.224 163.488C149.44 163.552 149.648 163.644 149.848 163.764C150.048 163.884 150.22 164.036 150.364 164.22C150.516 164.404 150.636 164.616 150.724 164.856C150.82 165.096 150.868 165.364 150.868 165.66C150.868 166.02 150.804 166.356 150.676 166.668C150.556 166.972 150.364 167.236 150.1 167.46C149.844 167.684 149.52 167.86 149.128 167.988C148.736 168.116 148.272 168.18 147.736 168.18C147.528 168.18 147.312 168.164 147.088 168.132C146.872 168.1 146.668 168.06 146.476 168.012C146.284 167.964 146.116 167.916 145.972 167.868C145.828 167.82 145.724 167.78 145.66 167.748L145.876 166.776C146.012 166.84 146.236 166.924 146.548 167.028C146.868 167.132 147.256 167.184 147.712 167.184Z" fill="white"/>
<path d="M202.376 145.684V147.28H199.868V154H197.996V147.28H195.488V145.684H202.376ZM203.459 154V144.976L205.247 144.688V147.712C205.367 147.672 205.519 147.636 205.703 147.604C205.895 147.564 206.079 147.544 206.255 147.544C206.767 147.544 207.191 147.616 207.527 147.76C207.871 147.896 208.143 148.092 208.343 148.348C208.551 148.604 208.695 148.908 208.775 149.26C208.863 149.612 208.907 150.004 208.907 150.436V154H207.119V150.652C207.119 150.076 207.043 149.668 206.891 149.428C206.747 149.188 206.475 149.068 206.075 149.068C205.915 149.068 205.763 149.084 205.619 149.116C205.483 149.14 205.359 149.168 205.247 149.2V154H203.459ZM215.914 153.784C215.61 153.872 215.218 153.952 214.738 154.024C214.258 154.104 213.754 154.144 213.226 154.144C212.69 154.144 212.242 154.072 211.882 153.928C211.53 153.784 211.25 153.584 211.042 153.328C210.834 153.064 210.686 152.752 210.598 152.392C210.51 152.032 210.466 151.636 210.466 151.204V147.688H212.254V150.988C212.254 151.564 212.33 151.98 212.482 152.236C212.634 152.492 212.918 152.62 213.334 152.62C213.462 152.62 213.598 152.616 213.742 152.608C213.886 152.592 214.014 152.576 214.126 152.56V147.688H215.914V153.784ZM199.827 163.836C199.827 162.444 200.071 161.372 200.559 160.62C201.055 159.868 201.739 159.492 202.611 159.492C203.483 159.492 204.163 159.868 204.651 160.62C205.147 161.372 205.395 162.444 205.395 163.836C205.395 165.228 205.147 166.3 204.651 167.052C204.163 167.804 203.483 168.18 202.611 168.18C201.739 168.18 201.055 167.804 200.559 167.052C200.071 166.3 199.827 165.228 199.827 163.836ZM204.219 163.836C204.219 163.38 204.191 162.948 204.135 162.54C204.087 162.132 203.999 161.776 203.871 161.472C203.751 161.168 203.587 160.928 203.379 160.752C203.171 160.568 202.915 160.476 202.611 160.476C202.307 160.476 202.051 160.568 201.843 160.752C201.635 160.928 201.467 161.168 201.339 161.472C201.219 161.776 201.131 162.132 201.075 162.54C201.027 162.948 201.003 163.38 201.003 163.836C201.003 164.292 201.027 164.724 201.075 165.132C201.131 165.54 201.219 165.896 201.339 166.2C201.467 166.504 201.635 166.748 201.843 166.932C202.051 167.108 202.307 167.196 202.611 167.196C202.915 167.196 203.171 167.108 203.379 166.932C203.587 166.748 203.751 166.504 203.871 166.2C203.999 165.896 204.087 165.54 204.135 165.132C204.191 164.724 204.219 164.292 204.219 163.836ZM206.48 165.12C206.632 164.768 206.84 164.36 207.104 163.896C207.368 163.424 207.664 162.94 207.992 162.444C208.328 161.948 208.684 161.46 209.06 160.98C209.444 160.5 209.828 160.068 210.212 159.684H211.28V164.964H212.264V165.876H211.28V168H210.2V165.876H206.48V165.12ZM210.2 161.004C209.96 161.26 209.716 161.548 209.468 161.868C209.228 162.18 208.992 162.508 208.76 162.852C208.528 163.196 208.308 163.548 208.1 163.908C207.9 164.268 207.72 164.62 207.56 164.964H210.2V161.004Z" fill="white"/>
<path d="M255.366 154V145.684H260.934V147.256H257.238V148.996H260.526V150.568H257.238V154H255.366ZM265.707 149.272C265.547 149.232 265.359 149.192 265.143 149.152C264.927 149.104 264.695 149.08 264.447 149.08C264.335 149.08 264.199 149.092 264.039 149.116C263.887 149.132 263.771 149.152 263.691 149.176V154H261.903V148.024C262.223 147.912 262.599 147.808 263.031 147.712C263.471 147.608 263.959 147.556 264.495 147.556C264.591 147.556 264.707 147.564 264.843 147.58C264.979 147.588 265.115 147.604 265.251 147.628C265.387 147.644 265.523 147.668 265.659 147.7C265.795 147.724 265.911 147.756 266.007 147.796L265.707 149.272ZM268.753 154H266.965V147.688H268.753V154ZM268.921 145.864C268.921 146.192 268.813 146.452 268.597 146.644C268.389 146.828 268.141 146.92 267.853 146.92C267.565 146.92 267.313 146.828 267.097 146.644C266.889 146.452 266.785 146.192 266.785 145.864C266.785 145.536 266.889 145.28 267.097 145.096C267.313 144.904 267.565 144.808 267.853 144.808C268.141 144.808 268.389 144.904 268.597 145.096C268.813 145.28 268.921 145.536 268.921 145.864ZM255.827 163.836C255.827 162.444 256.071 161.372 256.559 160.62C257.055 159.868 257.739 159.492 258.611 159.492C259.483 159.492 260.163 159.868 260.651 160.62C261.147 161.372 261.395 162.444 261.395 163.836C261.395 165.228 261.147 166.3 260.651 167.052C260.163 167.804 259.483 168.18 258.611 168.18C257.739 168.18 257.055 167.804 256.559 167.052C256.071 166.3 255.827 165.228 255.827 163.836ZM260.219 163.836C260.219 163.38 260.191 162.948 260.135 162.54C260.087 162.132 259.999 161.776 259.871 161.472C259.751 161.168 259.587 160.928 259.379 160.752C259.171 160.568 258.915 160.476 258.611 160.476C258.307 160.476 258.051 160.568 257.843 160.752C257.635 160.928 257.467 161.168 257.339 161.472C257.219 161.776 257.131 162.132 257.075 162.54C257.027 162.948 257.003 163.38 257.003 163.836C257.003 164.292 257.027 164.724 257.075 165.132C257.131 165.54 257.219 165.896 257.339 166.2C257.467 166.504 257.635 166.748 257.843 166.932C258.051 167.108 258.307 167.196 258.611 167.196C258.915 167.196 259.171 167.108 259.379 166.932C259.587 166.748 259.751 166.504 259.871 166.2C259.999 165.896 260.087 165.54 260.135 165.132C260.191 164.724 260.219 164.292 260.219 163.836ZM264.388 162.888C265.596 162.936 266.48 163.2 267.04 163.68C267.608 164.16 267.892 164.812 267.892 165.636C267.892 166.004 267.828 166.344 267.7 166.656C267.58 166.968 267.392 167.236 267.136 167.46C266.888 167.684 266.572 167.86 266.188 167.988C265.804 168.116 265.348 168.18 264.82 168.18C264.612 168.18 264.4 168.164 264.184 168.132C263.968 168.1 263.768 168.06 263.584 168.012C263.4 167.964 263.236 167.916 263.092 167.868C262.948 167.82 262.844 167.78 262.78 167.748L262.996 166.776C263.132 166.84 263.352 166.924 263.656 167.028C263.968 167.132 264.348 167.184 264.796 167.184C265.156 167.184 265.456 167.144 265.696 167.064C265.944 166.984 266.144 166.876 266.296 166.74C266.448 166.604 266.556 166.448 266.62 166.272C266.692 166.088 266.728 165.896 266.728 165.696C266.728 165.392 266.676 165.124 266.572 164.892C266.468 164.652 266.284 164.452 266.02 164.292C265.756 164.132 265.404 164.012 264.964 163.932C264.524 163.844 263.968 163.8 263.296 163.8C263.344 163.408 263.38 163.04 263.404 162.696C263.436 162.352 263.464 162.016 263.488 161.688C263.512 161.36 263.532 161.036 263.548 160.716C263.564 160.388 263.58 160.044 263.596 159.684H267.604V160.632H264.568C264.56 160.752 264.548 160.916 264.532 161.124C264.516 161.324 264.5 161.536 264.484 161.76C264.468 161.976 264.452 162.188 264.436 162.396C264.42 162.604 264.404 162.768 264.388 162.888Z" fill="white"/>
<path d="M310.683 152.572C310.947 152.572 311.163 152.552 311.331 152.512C311.507 152.464 311.647 152.404 311.751 152.332C311.855 152.252 311.927 152.16 311.967 152.056C312.007 151.952 312.027 151.836 312.027 151.708C312.027 151.436 311.899 151.212 311.643 151.036C311.387 150.852 310.947 150.656 310.323 150.448C310.051 150.352 309.779 150.244 309.507 150.124C309.235 149.996 308.991 149.84 308.775 149.656C308.559 149.464 308.383 149.236 308.247 148.972C308.111 148.7 308.043 148.372 308.043 147.988C308.043 147.604 308.115 147.26 308.259 146.956C308.403 146.644 308.607 146.38 308.871 146.164C309.135 145.948 309.455 145.784 309.831 145.672C310.207 145.552 310.631 145.492 311.103 145.492C311.663 145.492 312.147 145.552 312.555 145.672C312.963 145.792 313.299 145.924 313.563 146.068L313.023 147.544C312.791 147.424 312.531 147.32 312.243 147.232C311.963 147.136 311.623 147.088 311.223 147.088C310.775 147.088 310.451 147.152 310.251 147.28C310.059 147.4 309.963 147.588 309.963 147.844C309.963 147.996 309.999 148.124 310.071 148.228C310.143 148.332 310.243 148.428 310.371 148.516C310.507 148.596 310.659 148.672 310.827 148.744C311.003 148.808 311.195 148.876 311.403 148.948C311.835 149.108 312.211 149.268 312.531 149.428C312.851 149.58 313.115 149.76 313.323 149.968C313.539 150.176 313.699 150.42 313.803 150.7C313.907 150.98 313.959 151.32 313.959 151.72C313.959 152.496 313.687 153.1 313.143 153.532C312.599 153.956 311.779 154.168 310.683 154.168C310.315 154.168 309.983 154.144 309.687 154.096C309.391 154.056 309.127 154.004 308.895 153.94C308.671 153.876 308.475 153.808 308.307 153.736C308.147 153.664 308.011 153.596 307.899 153.532L308.427 152.044C308.675 152.18 308.979 152.304 309.339 152.416C309.707 152.52 310.155 152.572 310.683 152.572ZM317.832 152.752C318.008 152.752 318.176 152.748 318.336 152.74C318.496 152.732 318.624 152.72 318.72 152.704V151.348C318.648 151.332 318.54 151.316 318.396 151.3C318.252 151.284 318.12 151.276 318 151.276C317.832 151.276 317.672 151.288 317.52 151.312C317.376 151.328 317.248 151.364 317.136 151.42C317.024 151.476 316.936 151.552 316.872 151.648C316.808 151.744 316.776 151.864 316.776 152.008C316.776 152.288 316.868 152.484 317.052 152.596C317.244 152.7 317.504 152.752 317.832 152.752ZM317.688 147.52C318.216 147.52 318.656 147.58 319.008 147.7C319.36 147.82 319.64 147.992 319.848 148.216C320.064 148.44 320.216 148.712 320.304 149.032C320.392 149.352 320.436 149.708 320.436 150.1V153.82C320.18 153.876 319.824 153.94 319.368 154.012C318.912 154.092 318.36 154.132 317.712 154.132C317.304 154.132 316.932 154.096 316.596 154.024C316.268 153.952 315.984 153.836 315.744 153.676C315.504 153.508 315.32 153.292 315.192 153.028C315.064 152.764 315 152.44 315 152.056C315 151.688 315.072 151.376 315.216 151.12C315.368 150.864 315.568 150.66 315.816 150.508C316.064 150.356 316.348 150.248 316.668 150.184C316.988 150.112 317.32 150.076 317.664 150.076C317.896 150.076 318.1 150.088 318.276 150.112C318.46 150.128 318.608 150.152 318.72 150.184V150.016C318.72 149.712 318.628 149.468 318.444 149.284C318.26 149.1 317.94 149.008 317.484 149.008C317.18 149.008 316.88 149.032 316.584 149.08C316.288 149.12 316.032 149.18 315.816 149.26L315.588 147.82C315.692 147.788 315.82 147.756 315.972 147.724C316.132 147.684 316.304 147.652 316.488 147.628C316.672 147.596 316.864 147.572 317.064 147.556C317.272 147.532 317.48 147.52 317.688 147.52ZM321.993 146.116L323.781 145.828V147.688H325.929V149.176H323.781V151.396C323.781 151.772 323.845 152.072 323.973 152.296C324.109 152.52 324.377 152.632 324.777 152.632C324.969 152.632 325.165 152.616 325.365 152.584C325.573 152.544 325.761 152.492 325.929 152.428L326.181 153.82C325.965 153.908 325.725 153.984 325.461 154.048C325.197 154.112 324.873 154.144 324.489 154.144C324.001 154.144 323.597 154.08 323.277 153.952C322.957 153.816 322.701 153.632 322.509 153.4C322.317 153.16 322.181 152.872 322.101 152.536C322.029 152.2 321.993 151.828 321.993 151.42V146.116ZM310.827 163.836C310.827 162.444 311.071 161.372 311.559 160.62C312.055 159.868 312.739 159.492 313.611 159.492C314.483 159.492 315.163 159.868 315.651 160.62C316.147 161.372 316.395 162.444 316.395 163.836C316.395 165.228 316.147 166.3 315.651 167.052C315.163 167.804 314.483 168.18 313.611 168.18C312.739 168.18 312.055 167.804 311.559 167.052C311.071 166.3 310.827 165.228 310.827 163.836ZM315.219 163.836C315.219 163.38 315.191 162.948 315.135 162.54C315.087 162.132 314.999 161.776 314.871 161.472C314.751 161.168 314.587 160.928 314.379 160.752C314.171 160.568 313.915 160.476 313.611 160.476C313.307 160.476 313.051 160.568 312.843 160.752C312.635 160.928 312.467 161.168 312.339 161.472C312.219 161.776 312.131 162.132 312.075 162.54C312.027 162.948 312.003 163.38 312.003 163.836C312.003 164.292 312.027 164.724 312.075 165.132C312.131 165.54 312.219 165.896 312.339 166.2C312.467 166.504 312.635 166.748 312.843 166.932C313.051 167.108 313.307 167.196 313.611 167.196C313.915 167.196 314.171 167.108 314.379 166.932C314.587 166.748 314.751 166.504 314.871 166.2C314.999 165.896 315.087 165.54 315.135 165.132C315.191 164.724 315.219 164.292 315.219 163.836ZM317.756 164.664C317.756 163.856 317.868 163.144 318.092 162.528C318.316 161.904 318.632 161.38 319.04 160.956C319.456 160.532 319.956 160.212 320.54 159.996C321.132 159.772 321.796 159.656 322.532 159.648L322.616 160.584C322.144 160.592 321.712 160.644 321.32 160.74C320.936 160.836 320.592 160.988 320.288 161.196C319.984 161.404 319.728 161.676 319.52 162.012C319.312 162.34 319.156 162.748 319.052 163.236C319.26 163.14 319.492 163.06 319.748 162.996C320.012 162.932 320.284 162.9 320.564 162.9C321.036 162.9 321.436 162.972 321.764 163.116C322.092 163.26 322.36 163.452 322.568 163.692C322.776 163.924 322.924 164.196 323.012 164.508C323.108 164.812 323.156 165.132 323.156 165.468C323.156 165.772 323.104 166.084 323 166.404C322.896 166.724 322.736 167.016 322.52 167.28C322.312 167.544 322.044 167.76 321.716 167.928C321.388 168.096 321 168.18 320.552 168.18C319.64 168.18 318.944 167.868 318.464 167.244C317.992 166.62 317.756 165.76 317.756 164.664ZM320.444 163.812C320.164 163.812 319.904 163.84 319.664 163.896C319.424 163.944 319.184 164.02 318.944 164.124C318.936 164.212 318.928 164.304 318.92 164.4C318.92 164.488 318.92 164.576 318.92 164.664C318.92 165.016 318.944 165.348 318.992 165.66C319.04 165.972 319.124 166.248 319.244 166.488C319.372 166.72 319.54 166.908 319.748 167.052C319.956 167.188 320.22 167.256 320.54 167.256C320.804 167.256 321.028 167.2 321.212 167.088C321.396 166.976 321.548 166.832 321.668 166.656C321.788 166.48 321.872 166.292 321.92 166.092C321.976 165.884 322.004 165.684 322.004 165.492C322.004 164.948 321.872 164.532 321.608 164.244C321.352 163.956 320.964 163.812 320.444 163.812Z" fill="white"/>
<line opacity="0.4" x1="25.5" y1="133" x2="25.5" y2="15" stroke="#828282"/>
<line opacity="0.4" x1="144.5" y1="133" x2="144.5" y2="15" stroke="#828282"/>
<line opacity="0.4" x1="83.5" y1="133" x2="83.5" y2="15" stroke="#828282"/>
<line opacity="0.4" x1="205.5" y1="133" x2="205.5" y2="15" stroke="#828282"/>
<line opacity="0.4" x1="261.5" y1="133" x2="261.5" y2="15" stroke="#828282"/>
<line opacity="0.4" x1="316.5" y1="133" x2="316.5" y2="15" stroke="#828282"/>
<path d="M1 82L25.5 108L84 83L144.5 85L205.5 74L261 87.5L317 51" stroke="#E0E0E0"/>
<line opacity="0.15" x1="4.37114e-08" y1="50.5" x2="343" y2="50.5" stroke="#828282"/>
<circle cx="316.5" cy="50.5" r="3" fill="#4F4F4F" stroke="#E0E0E0"/>
</svg>
