<svg width="16" height="16" viewBox="0 0 16 16" fill="none" xmlns="http://www.w3.org/2000/svg">
<path fill-rule="evenodd" clip-rule="evenodd" d="M7.40422 1.33723C7.71556 1.37022 7.962 1.6154 7.99657 1.92657L9.05802 11.4796L10.034 9.28364C10.1936 8.92449 10.3341 8.60839 10.4789 8.35819C10.6357 8.08732 10.8258 7.84167 11.1107 7.65654C11.3955 7.47141 11.6972 7.3975 12.0084 7.36422C12.2959 7.33348 12.6418 7.3335 13.0348 7.33352L14.6673 7.33352V8.66686H13.067C12.6322 8.66686 12.3583 8.66774 12.1502 8.69C11.958 8.71055 11.8837 8.74432 11.8372 8.77453C11.7907 8.80474 11.7297 8.85892 11.6328 9.0262C11.528 9.20735 11.4159 9.45727 11.2394 9.85458L9.27653 14.271C9.15424 14.5461 8.86273 14.7051 8.5652 14.659C8.26767 14.6129 8.03798 14.3731 8.00473 14.0738L7.00659 5.09056L6.56319 6.42077C6.426 6.83243 6.30575 7.19323 6.17258 7.47949C6.02862 7.78894 5.84319 8.07254 5.54239 8.28934C5.24159 8.50615 4.91391 8.59238 4.57481 8.6311C4.26114 8.66691 3.88081 8.66688 3.4469 8.66686L1.33398 8.66686V7.33352H3.41196C3.89113 7.33352 4.19452 7.33252 4.42357 7.30637C4.63558 7.28216 4.7144 7.24256 4.76278 7.20769C4.81116 7.17281 4.87366 7.11057 4.96366 6.91709C5.0609 6.70807 5.1578 6.42056 5.30933 5.96598L6.70153 1.78937C6.80053 1.49236 7.09288 1.30425 7.40422 1.33723Z" fill="#F83E59"/>
</svg>
