<svg width="14" height="15" viewBox="0 0 14 15" fill="none" xmlns="http://www.w3.org/2000/svg">
<path d="M7 15C8.38447 15 9.73785 14.5601 10.889 13.736C12.0401 12.9119 12.9373 11.7406 13.4672 10.3701C13.997 8.99968 14.1356 7.49168 13.8655 6.03683C13.5954 4.58197 12.9287 3.2456 11.9497 2.1967C10.9708 1.14781 9.7235 0.433503 8.36563 0.144114C7.00777 -0.145275 5.6003 0.00324965 4.32122 0.570907C3.04213 1.13856 1.94888 2.09986 1.17971 3.33323C0.410543 4.5666 0 6.01664 0 7.5C0.0020073 9.48847 0.74015 11.3949 2.05247 12.8009C3.36479 14.207 5.1441 14.9979 7 15ZM7 3.125C7.17306 3.125 7.34223 3.17999 7.48612 3.283C7.63002 3.38601 7.74217 3.53243 7.8084 3.70374C7.87462 3.87504 7.89195 4.06354 7.85819 4.2454C7.82443 4.42726 7.74109 4.5943 7.61872 4.72542C7.49635 4.85653 7.34044 4.94582 7.1707 4.98199C7.00097 5.01816 6.82504 4.9996 6.66515 4.92864C6.50527 4.85768 6.36861 4.73752 6.27246 4.58335C6.17632 4.42918 6.125 4.24792 6.125 4.0625C6.125 3.81386 6.21719 3.57541 6.38128 3.39959C6.54538 3.22378 6.76794 3.125 7 3.125ZM6.41667 6.25H7C7.30942 6.25 7.60617 6.3817 7.82496 6.61612C8.04375 6.85054 8.16667 7.16848 8.16667 7.5V11.25C8.16667 11.4158 8.10521 11.5747 7.99581 11.6919C7.88642 11.8092 7.73804 11.875 7.58333 11.875C7.42862 11.875 7.28025 11.8092 7.17086 11.6919C7.06146 11.5747 7 11.4158 7 11.25V7.5H6.41667C6.26196 7.5 6.11358 7.43416 6.00419 7.31695C5.89479 7.19974 5.83333 7.04076 5.83333 6.875C5.83333 6.70924 5.89479 6.55027 6.00419 6.43306C6.11358 6.31585 6.26196 6.25 6.41667 6.25Z" fill="white"/>
</svg>
