<svg width="72" height="92" viewBox="0 0 72 92" fill="none" xmlns="http://www.w3.org/2000/svg">
<g opacity="0.3">
<path d="M11.5964 6.09373C9.24531 4.67185 6.29063 4.62498 3.89193 5.9531C1.49323 7.28123 0 9.78123 0 12.5V67.5C0 70.2187 1.49323 72.7187 3.89193 74.0469C6.29063 75.375 9.24531 75.3125 11.5964 73.9062L57.3464 46.4062C59.618 45.0469 61 42.625 61 40C61 37.375 59.618 34.9687 57.3464 33.5937L11.5964 6.09373Z" fill="#EA4237"/>
<rect x="19" y="40" width="53" height="52" rx="26" fill="#333333"/>
<path d="M45.4999 46.9876C50.6486 46.9876 55.5865 48.9907 59.2273 52.5562C62.868 56.1218 64.9133 60.9577 64.9133 66.0001C64.9133 71.0425 62.868 75.8784 59.2273 79.444C55.5865 83.0095 50.6486 85.0126 45.4999 85.0126C40.3511 85.0126 35.4132 83.0095 31.7725 79.444C28.1318 75.8784 26.0865 71.0425 26.0865 66.0001C26.0865 60.9577 28.1318 56.1218 31.7725 52.5562C35.4132 48.9907 40.3511 46.9876 45.4999 46.9876ZM45.4999 89.4001C51.8368 89.4001 57.9142 86.9347 62.3951 82.5464C66.876 78.158 69.3933 72.2062 69.3933 66.0001C69.3933 59.794 66.876 53.8422 62.3951 49.4538C57.9142 45.0654 51.8368 42.6001 45.4999 42.6001C39.163 42.6001 33.0856 45.0654 28.6047 49.4538C24.1238 53.8422 21.6064 59.794 21.6064 66.0001C21.6064 72.2062 24.1238 78.158 28.6047 82.5464C33.0856 86.9347 39.163 89.4001 45.4999 89.4001ZM45.4999 54.3001C44.2586 54.3001 43.2599 55.2781 43.2599 56.4938V66.7313C43.2599 67.9471 44.2586 68.9251 45.4999 68.9251C46.7412 68.9251 47.7399 67.9471 47.7399 66.7313V56.4938C47.7399 55.2781 46.7412 54.3001 45.4999 54.3001ZM48.4866 74.7751C48.4866 73.9993 48.1719 73.2554 47.6118 72.7068C47.0517 72.1583 46.292 71.8501 45.4999 71.8501C44.7078 71.8501 43.9481 72.1583 43.388 72.7068C42.8279 73.2554 42.5132 73.9993 42.5132 74.7751C42.5132 75.5509 42.8279 76.2948 43.388 76.8434C43.9481 77.3919 44.7078 77.7001 45.4999 77.7001C46.292 77.7001 47.0517 77.3919 47.6118 76.8434C48.1719 76.2948 48.4866 75.5509 48.4866 74.7751Z" fill="#EA4237"/>
</g>
</svg>
