<svg width="29" height="11" viewBox="0 0 29 11" fill="none" xmlns="http://www.w3.org/2000/svg">
<path d="M4.32311 0H2.06847C0.930813 0 0 0.816833 0 1.81518V9.87459C0 10.5099 0.579173 11 1.28245 11C1.98573 11 2.56491 10.4918 2.56491 9.87459V7.66006H4.30243C6.74322 7.66006 8.72896 5.93564 8.72896 3.83003C8.72896 1.72442 6.74322 0 4.30243 0H4.32311ZM4.32311 5.39109H2.60628V2.26898H4.34379C5.33666 2.26898 6.18474 2.9769 6.18474 3.83003C6.18474 4.68317 5.33666 5.39109 4.34379 5.39109H4.32311ZM29 1.14356C29 1.77888 28.4208 2.26898 27.7175 2.26898H24.2218V4.33828H26.7867C27.5107 4.33828 28.0692 4.84654 28.0692 5.4637C28.0692 6.08086 27.49 6.58911 26.7867 6.58911H24.2218V9.85644C24.2218 10.4917 23.6427 10.9818 22.9394 10.9818C22.2361 10.9818 21.6569 10.4736 21.6569 9.85644V1.12541C21.6569 0.490098 22.2361 0 22.9394 0H27.7175C28.4415 0 29 0.50825 29 1.12541V1.14356ZM14.6655 0.0181531H12.4108C11.2732 0.0181531 10.3424 0.834983 10.3424 1.83333V9.89274C10.3424 10.5281 10.9215 10.9092 11.6248 10.9092C12.3281 10.9092 14.6448 10.9092 14.6448 10.9092C17.0856 10.9092 19.0713 9.18482 19.0713 7.07921V3.84818C19.0713 1.74257 17.0856 0.0181531 14.6448 0.0181531H14.6655ZM16.5064 7.07921C16.5064 7.93234 15.6583 8.64026 14.6655 8.64026H12.9486V2.28713H14.6862C15.679 2.28713 16.5271 2.99505 16.5271 3.84818V7.07921H16.5064Z" fill="#828282"/>
</svg>
