<svg width="20" height="20" viewBox="0 0 20 20" fill="none" xmlns="http://www.w3.org/2000/svg">
<path d="M6.42564 3.82567C6.57238 3.01857 7.17805 2.37212 7.97389 2.17315V2.17315C9.30417 1.84059 10.6959 1.84059 12.0261 2.17315V2.17315C12.822 2.37212 13.4276 3.01857 13.5744 3.82567L13.5894 3.90828C13.9711 6.00775 13.9711 8.15884 13.5894 10.2583L13.5744 10.3409C13.4276 11.148 12.822 11.7945 12.0261 11.9934V11.9934C10.6959 12.326 9.30417 12.326 7.97389 11.9934V11.9934C7.17805 11.7945 6.57238 11.148 6.42564 10.3409L6.41062 10.2583C6.0289 8.15884 6.0289 6.00775 6.41062 3.90828L6.42564 3.82567Z" stroke="#111214" stroke-width="1.66667" stroke-linejoin="round"/>
<path d="M3.33334 10.8334V12.5109C3.33334 13.9329 4.39221 15.1324 5.80324 15.3088V15.3088C8.59024 15.6572 11.4098 15.6572 14.1968 15.3088V15.3088C15.6078 15.1324 16.6667 13.9329 16.6667 12.5109V10.8334" stroke="#111214" stroke-width="1.66667" stroke-linejoin="round"/>
<path d="M10 15V18.3333" stroke="#111214" stroke-width="1.66667" stroke-linejoin="round"/>
</svg>
