<svg width="23" height="23" viewBox="0 0 23 23" fill="none" xmlns="http://www.w3.org/2000/svg">
<g clip-path="url(#clip0_3779_44)">
<path d="M22.9326 19.9004L20.0172 7.68164C19.7431 6.54512 18.7369 5.75 17.5644 5.75H15.0034C15.2787 5.21094 15.4526 4.60449 15.4526 3.95312C15.4531 1.76902 13.6832 0 11.5 0C9.31677 0 7.50642 1.76902 7.50642 3.95312C7.50642 4.60449 7.68049 5.21094 7.95564 5.75H5.39509C4.26486 5.75 3.25771 6.54512 2.98458 7.68164L0.0696025 19.9004C-0.110085 20.6528 0.0618804 21.4336 0.542181 22.04C1.02284 22.6496 1.74294 23 2.51919 23H20.479C21.2552 23 21.9753 22.6505 22.4564 22.0414C22.9371 21.4367 23.1123 20.6551 22.9326 19.9004ZM9.66267 3.95312C9.66267 2.96484 10.4713 2.15625 11.4595 2.15625C12.4478 2.15625 13.2564 2.96484 13.2564 3.95312C13.2564 4.94141 12.4883 5.75 11.5 5.75C10.5117 5.75 9.66267 4.94141 9.66267 3.95312ZM20.7674 20.7045C20.7269 20.7584 20.6326 20.8438 20.4799 20.8438H2.51919C2.36619 20.8438 2.27491 20.7567 2.23421 20.7062C2.1942 20.6557 2.13174 20.5476 2.16683 20.4016L5.08181 8.22326C5.08064 8.01855 5.26482 7.90625 5.39509 7.90625H17.524C17.6925 7.90625 17.8377 8.01995 17.877 8.18279L20.792 20.4015C20.8662 20.5473 20.8078 20.6551 20.7674 20.7045Z" fill="#F2994A"/>
</g>
<defs>
<clipPath id="clip0_3779_44">
<rect width="23" height="23" fill="white"/>
</clipPath>
</defs>
</svg>
